<svg width="48" height="38" viewBox="0 0 48 38" fill="none" xmlns="http://www.w3.org/2000/svg">
<path fill-rule="evenodd" clip-rule="evenodd" d="M31.343 3.12304C31.5093 2.49958 31.4264 1.83587 31.1119 1.27248C30.7973 0.7091 30.2757 0.290304 29.6577 0.104811C29.0397 -0.0806819 28.3737 -0.0183008 27.8009 0.278739C27.2281 0.575779 26.7934 1.08415 26.5889 1.69615L16.657 34.8026C16.4952 35.4247 16.581 36.0854 16.8964 36.6455C17.2117 37.2057 17.732 37.6217 18.3478 37.8061C18.9636 37.9905 19.6269 37.9289 20.1982 37.6343C20.7695 37.3396 21.2043 36.8348 21.4111 36.2262L31.343 3.12304ZM12.5121 8.92991C12.977 9.39547 13.2382 10.0266 13.2382 10.6846C13.2382 11.3425 12.977 11.9736 12.5121 12.4392L5.99008 18.9612L12.5121 25.4831C12.9507 25.9538 13.1894 26.5764 13.1781 27.2197C13.1667 27.8629 12.9061 28.4767 12.4512 28.9316C11.9963 29.3865 11.3825 29.6471 10.7393 29.6584C10.096 29.6698 9.47346 29.431 9.00277 28.9924L0.726157 20.7158C0.261176 20.2502 0 19.6192 0 18.9612C0 18.3032 0.261176 17.6721 0.726157 17.2065L9.00277 8.92991C9.46833 8.46493 10.0994 8.20375 10.7574 8.20375C11.4154 8.20375 12.0465 8.46493 12.5121 8.92991ZM35.4879 28.9924C35.023 28.5269 34.7618 27.8958 34.7618 27.2378C34.7618 26.5798 35.023 25.9487 35.4879 25.4831L42.0099 18.9612L35.4879 12.4392C35.0494 11.9685 34.8106 11.346 34.8219 10.7027C34.8333 10.0594 35.0939 9.44568 35.5488 8.99076C36.0037 8.53583 36.6175 8.27524 37.2607 8.26389C37.904 8.25254 38.5265 8.49132 38.9972 8.92991L47.2738 17.2065C47.7388 17.6721 48 18.3032 48 18.9612C48 19.6192 47.7388 20.2502 47.2738 20.7158L38.9972 28.9924C38.5317 29.4574 37.9006 29.7186 37.2426 29.7186C36.5846 29.7186 35.9535 29.4574 35.4879 28.9924Z" fill="black"/>
</svg>
