<svg width="49" height="39" viewBox="0 0 49 39" fill="none" xmlns="http://www.w3.org/2000/svg">
<path fill-rule="evenodd" clip-rule="evenodd" d="M32.0937 3.39571C32.26 2.77225 32.1771 2.10854 31.8625 1.54515C31.5479 0.981768 31.0264 0.562972 30.4084 0.377479C29.7904 0.191986 29.1244 0.254367 28.5516 0.551407C27.9788 0.848447 27.5441 1.35681 27.3396 1.96882L17.4076 35.0753C17.2459 35.6974 17.3317 36.358 17.647 36.9182C17.9624 37.4784 18.4826 37.8944 19.0985 38.0788C19.7143 38.2632 20.3776 38.2016 20.9489 37.9069C21.5202 37.6123 21.955 37.1075 22.1617 36.4989L32.0937 3.39571ZM13.2627 9.20258C13.7277 9.66814 13.9889 10.2992 13.9889 10.9572C13.9889 11.6152 13.7277 12.2463 13.2627 12.7119L6.74074 19.2338L13.2627 25.7558C13.7013 26.2265 13.9401 26.8491 13.9287 27.4923C13.9174 28.1356 13.6568 28.7493 13.2019 29.2043C12.7469 29.6592 12.1332 29.9198 11.4899 29.9311C10.8467 29.9425 10.2241 29.7037 9.75343 29.2651L1.47682 20.9885C1.01184 20.5229 0.75066 19.8918 0.75066 19.2338C0.75066 18.5758 1.01184 17.9448 1.47682 17.4792L9.75343 9.20258C10.219 8.7376 10.8501 8.47642 11.5081 8.47642C12.1661 8.47642 12.7972 8.7376 13.2627 9.20258ZM36.2386 29.2651C35.7736 28.7995 35.5124 28.1684 35.5124 27.5105C35.5124 26.8525 35.7736 26.2214 36.2386 25.7558L42.7606 19.2338L36.2386 12.7119C35.8 12.2412 35.5612 11.6186 35.5726 10.9754C35.5839 10.3321 35.8445 9.71835 36.2994 9.26342C36.7544 8.8085 37.3681 8.54791 38.0114 8.53656C38.6546 8.52521 39.2772 8.76398 39.7479 9.20258L48.0245 17.4792C48.4895 17.9448 48.7507 18.5758 48.7507 19.2338C48.7507 19.8918 48.4895 20.5229 48.0245 20.9885L39.7479 29.2651C39.2823 29.7301 38.6512 29.9913 37.9932 29.9913C37.3353 29.9913 36.7042 29.7301 36.2386 29.2651Z" fill="#E2E2E2"/>
</svg>
